# xmcd
#
# Track frame offsets: 
#        150
#        12270
#        26950
#        42325
#        58612
#        80775
#        99040
#        112957
#        129035
#        144067
#        158035
#        175967
#
# Disc length: 2622 seconds
#
# Revision: 5
# Processed by: cddbd v1.5.1PL0 Copyright (c) Steve Scherf et al.
# Submitted via: ExactAudioCopy v0.95a5
#
DISCID=8c0a3c0c
DTITLE=Stacey Earle - Dancin' With Them That Brung Me
DYEAR=1999
DGENRE=Country
TTITLE0=Promise You Anything
TTITLE1=Is It Enough ( I Luuuv You)
TTITLE2=Did I Say "I'm Sorry"
TTITLE3=Makes Me Happy
TTITLE4=No New Shoes
TTITLE5=Good-By
TTITLE6=Kiss Her Goodnight
TTITLE7=Wonderful Life
TTITLE8=Must Be Love
TTITLE9=Dancin' With Them That Brung Me
TTITLE10=Why
TTITLE11=How I Ran
EXTD=YEAR: 1999 ID3G:   2
EXTT0=
EXTT1=
EXTT2=
EXTT3=
EXTT4=
EXTT5=
EXTT6=
EXTT7=
EXTT8=
EXTT9=
EXTT10=
EXTT11=
PLAYORDER=
